HIERARCHY
ROOT Hips
{
	OFFSET -0.179506 -22.333345 2.821913
	CHANNELS 6 Xposition Yposition Zposition Zrotation Yrotation Xrotation 
	JOINT LeftUpLeg
	{
		OFFSET 6.951974 -9.140623 -0.681533
		CHANNELS 3 Zrotation Yrotation Xrotation
		JOINT LeftLeg
		{
			OFFSET 3.427654 -37.519855 -0.449580
			CHANNELS 3 Zrotation Yrotation Xrotation
			JOINT LeftFoot
			{
				OFFSET -1.359570 -39.796059 -4.369333
				CHANNELS 3 Zrotation Yrotation Xrotation
				JOINT LeftToe
				{
					OFFSET 2.635814 -5.579078 11.928840
					CHANNELS 3 Zrotation Yrotation Xrotation
					End Site
					{
						OFFSET 0.000000 0.000000 0.000000
					}
				}
			}
		}
	}
	JOINT RightUpLeg
	{
		OFFSET -6.767048 -9.052170 -0.431982
		CHANNELS 3 Zrotation Yrotation Xrotation
		JOINT RightLeg
		{
			OFFSET -3.829005 -38.256897 -0.885003
			CHANNELS 3 Zrotation Yrotation Xrotation
			JOINT RightFoot
			{
				OFFSET 1.577377 -39.841461 -4.231180
				CHANNELS 3 Zrotation Yrotation Xrotation
				JOINT RightToe
				{
					OFFSET -2.537174 -4.814398 12.334795
					CHANNELS 3 Zrotation Yrotation Xrotation
					End Site
					{
						OFFSET 0.000000 0.000000 0.000000
					}
				}
			}
		}
	}
	JOINT Spine
	{
		OFFSET -0.253288 10.896323 -2.669631
		CHANNELS 3 Zrotation Yrotation Xrotation
		JOINT Spine1
		{
			OFFSET 0.548704 13.518043 0.109247
			CHANNELS 3 Zrotation Yrotation Xrotation
			JOINT Spine2
			{
				OFFSET 0.145701 5.292222 2.542457
				CHANNELS 3 Zrotation Yrotation Xrotation
				JOINT Neck
				{
					OFFSET -0.277840 21.387037 -4.285703
					CHANNELS 3 Zrotation Yrotation Xrotation
					JOINT Head
					{
						OFFSET 0.515184 6.496960 5.134897
						CHANNELS 3 Zrotation Yrotation Xrotation
						End Site
						{
							OFFSET 0.000000 0.000000 0.000000
						}
					}
				}
				JOINT LeftShoulder
				{
					OFFSET 7.884473 12.174932 -3.408961
					CHANNELS 3 Zrotation Yrotation Xrotation
					JOINT LeftArm
					{
						OFFSET 9.097692 3.046888 -0.886815
						CHANNELS 3 Zrotation Yrotation Xrotation
						JOINT LeftForeArm
						{
							OFFSET 25.961220 -1.277207 -2.745643
							CHANNELS 3 Zrotation Yrotation Xrotation
							JOINT LeftHand
							{
								OFFSET 24.923361 0.898606 -0.117091
								CHANNELS 3 Zrotation Yrotation Xrotation
								End Site
								{
									OFFSET 0.000000 0.000000 0.000000
								}
							}
						}
					}
				}
				JOINT RightShoulder
				{
					OFFSET -8.175920 11.883285 -3.861528
					CHANNELS 3 Zrotation Yrotation Xrotation
					JOINT RightArm
					{
						OFFSET -9.601238 3.255117 -0.914307
						CHANNELS 3 Zrotation Yrotation Xrotation
						JOINT RightForeArm
						{
							OFFSET -25.374195 -1.332924 -2.140099
							CHANNELS 3 Zrotation Yrotation Xrotation
							JOINT RightHand
							{
								OFFSET -25.529810 0.777228 -0.555919
								CHANNELS 3 Zrotation Yrotation Xrotation
								End Site
								{
									OFFSET 0.000000 0.000000 0.000000
								}
							}
						}
					}
				}
			}
		}
	}
}
MOTION
Frames: 12
Frame Time: 0.033333
141.052979 -103.825668 88.825348 -131.017108 -0.898374 83.296172 0.946453 -1.660322 -19.667430 -4.520739 6.688899 20.272980 3.368776 13.934481 -14.636149 nan nan nan 0.423822 -2.972024 9.996795 2.509101 4.036068 16.939216 -0.817338 -6.992739 -22.179768 nan nan nan 1.930284 7.492757 12.472022 0.536904 -2.596849 9.789381 -0.336374 2.254869 -4.380289 1.371585 -0.791213 -2.982786 0.815376 -1.301364 3.710037 -28.913566 -0.783579 0.103973 -48.366952 2.757863 10.733388 6.120216 -35.454077 -0.307298 -5.601516 -14.084271 -2.505110 25.784231 12.268709 1.836444 44.701282 8.747430 11.832740 -15.076089 38.881846 -9.640028 4.615165 15.988783 2.112732 
141.811203 -104.425613 89.116844 -130.779797 -1.061175 83.326441 0.862093 -2.106306 -19.318970 -4.692136 6.646088 22.261313 3.164882 14.069127 -14.967935 nan nan nan 0.419037 -2.790213 9.177460 2.420562 3.661203 16.903451 -0.922550 -7.167336 -21.512502 nan nan nan 1.757328 7.455595 12.353894 0.622945 -2.622865 9.798451 -0.319268 2.023510 -4.414408 1.309063 -0.819313 -2.796811 0.942278 -1.356082 3.916287 -28.916534 -0.964358 0.203256 -48.313416 2.404881 10.951488 6.139058 -35.552741 -0.370489 -5.527974 -14.242913 -2.322501 25.766788 12.123650 1.820278 44.902203 8.277772 11.847056 -14.922231 38.661685 -9.526993 4.697669 16.186653 2.166383 
142.540222 -105.028725 89.425217 -130.569727 -1.195677 83.387111 0.789492 -2.495588 -18.863401 -4.852964 6.597814 24.154474 3.026229 14.248664 -15.372614 nan nan nan 0.448386 -2.600718 8.363422 2.298568 3.380465 16.826798 -1.046843 -7.341415 -20.770536 nan nan nan 1.535557 7.396883 12.102751 0.747426 -2.626013 9.906282 -0.276132 1.810883 -4.492743 1.296308 -0.912417 -2.446638 1.014486 -1.354765 3.996003 -28.953949 -1.086559 0.341805 -48.234056 2.015977 11.191640 6.168321 -35.677392 -0.368041 -5.417716 -14.432334 -2.135049 25.821883 11.957362 1.853068 44.958382 7.871315 11.880727 -14.632410 38.358913 -9.477739 4.639344 16.306297 2.017982 
143.218658 -105.617912 89.727577 -130.365674 -1.345923 83.360055 0.675186 -2.788536 -18.082145 -4.869617 6.848446 25.830295 3.013034 14.143717 -15.784850 nan nan nan 0.383554 -2.474054 7.734274 2.209125 3.190955 16.701115 -1.062280 -7.332457 -19.996013 nan nan nan 1.311575 7.314849 11.802445 0.863619 -2.684572 10.248492 -0.274012 1.658257 -4.670749 1.309930 -0.957730 -2.049186 1.067029 -1.463935 3.897006 -28.879951 -1.205846 0.378292 -48.169634 1.670487 11.344974 5.973157 -35.806701 -0.328245 -5.540787 -14.569072 -1.812987 25.902325 11.795320 1.900469 44.973695 7.387037 11.940012 -14.339457 38.172003 -9.299064 4.675945 16.407922 2.410128 
143.885315 -106.214096 90.022224 -130.089760 -1.491751 83.373969 0.532399 -3.024028 -17.273510 -4.857411 7.100330 27.423304 2.948859 14.012983 -16.038500 nan nan nan 0.247846 -2.445969 7.108687 2.170210 2.897445 16.542869 -1.081797 -7.309864 -19.264511 nan nan nan 1.046462 7.194888 11.451716 1.017379 -2.796577 10.534050 -0.246187 1.535778 -4.798250 1.263873 -0.926833 -1.668881 1.114895 -1.660488 3.790187 -28.772256 -1.252183 0.325056 -48.179627 1.295543 11.465593 5.673832 -35.971906 -0.339151 -5.671103 -14.660793 -1.559014 25.944564 11.617946 1.953423 44.999771 6.867919 12.055735 -14.089543 38.069855 -9.066382 4.740925 16.372072 2.867641 
144.563461 -106.803413 90.307648 -129.790314 -1.628531 83.443829 0.418624 -3.254244 -16.525053 -4.863041 7.285965 29.002920 2.753853 13.982770 -16.281095 nan nan nan 0.135379 -2.373365 6.557854 2.119597 2.534571 16.151144 -1.155327 -7.276440 -18.498028 nan nan nan 0.766964 7.094530 11.152888 1.149310 -2.877535 10.517174 -0.182192 1.366047 -4.769613 1.274169 -0.891303 -1.341172 1.152903 -1.849161 3.838347 -28.627172 -1.311602 0.478125 -48.256805 0.871865 11.528223 5.564128 -36.215771 -0.181534 -5.761886 -14.735232 -1.472484 25.968024 11.359784 2.081115 45.077422 6.384975 12.133379 -13.852792 38.046580 -8.758408 4.943119 16.228337 2.832265 
145.249054 -107.366058 90.594414 -129.556691 -1.750925 83.442052 0.378756 -3.308967 -15.627301 -4.834284 7.717368 30.491643 2.618469 13.990174 -16.503365 nan nan nan 0.048084 -2.257724 6.205884 2.063379 2.250397 15.552036 -1.208786 -7.135956 -17.570059 nan nan nan 0.509132 6.986558 10.990598 1.248663 -2.909311 10.484131 -0.090339 1.195466 -4.770508 1.368066 -0.835650 -0.987712 1.056835 -2.002016 3.781177 -28.463055 -1.340040 0.634256 -48.343195 0.508290 11.508160 5.552861 -36.537424 0.033705 -5.918146 -14.770624 -1.354515 25.931647 11.027383 2.169703 45.264678 5.923329 12.132507 -13.604621 38.114417 -8.346400 5.297149 16.134862 2.763620 
145.923096 -107.942009 90.879936 -129.404635 -1.806808 83.453976 0.408327 -3.292051 -14.681911 -4.761332 8.254056 31.957090 2.525962 14.064073 -16.807774 nan nan nan -0.038395 -2.095380 5.789830 2.141547 2.034595 15.056965 -1.118199 -6.960319 -16.570466 nan nan nan 0.377489 6.879676 10.792496 1.332599 -2.839174 10.551952 -0.029225 0.989829 -4.879421 1.480401 -0.871212 -0.488125 0.960104 -2.189708 3.552553 -28.381981 -1.362296 0.773410 -48.369307 0.237726 11.487395 5.619243 -37.018131 0.181719 -6.073286 -14.888119 -1.046819 25.854723 10.666212 2.191926 45.452426 5.381420 12.096481 -13.258590 38.245800 -7.877496 5.434303 16.047512 2.898516 
146.573639 -108.523071 91.144203 -129.234670 -1.836619 83.467993 0.481463 -3.276923 -13.626240 -4.744993 8.654432 33.338459 2.207160 14.099974 -17.118307 nan nan nan -0.105101 -1.961555 5.299778 2.198613 1.731364 14.718695 -0.998782 -6.889100 -15.790198 nan nan nan 0.214812 6.712914 10.528915 1.433369 -2.776115 10.555960 0.040286 0.859097 -4.870944 1.592335 -1.013097 -0.039833 0.957623 -2.377790 3.318019 -28.290022 -1.429431 1.047880 -48.428634 -0.081477 11.366213 5.647239 -37.613650 0.199420 -6.443699 -15.238718 -1.020224 25.797201 10.407023 2.258232 45.636703 4.798701 12.060293 -13.121376 38.230461 -7.588250 5.728782 16.014568 2.909204 
147.200180 -109.118645 91.380737 -129.022408 -1.894065 83.473145 0.494775 -3.237809 -12.489201 -4.651282 8.974396 34.603904 1.774205 14.031096 -17.340384 nan nan nan -0.218089 -1.918269 4.853466 2.202286 1.356349 14.312092 -0.949849 -6.811946 -15.125953 nan nan nan 0.040800 6.454402 10.320747 1.513871 -2.807538 10.457277 0.076109 0.789558 -4.806656 1.642326 -1.063454 0.320405 0.951232 -2.475022 3.097475 -28.133131 -1.379513 1.240990 -48.549581 -0.356381 11.228390 5.542945 -38.209526 0.263178 -6.687873 -15.425399 -1.179248 25.823404 10.164776 2.283225 45.766233 4.300977 12.109195 -12.976877 38.035532 -7.287358 6.217516 16.132720 2.949401 
147.836136 -109.733795 91.581070 -128.817139 -1.926860 83.603992 0.502358 -3.165859 -11.503941 -4.558324 9.065124 35.846928 1.428517 14.261144 -17.726575 nan nan nan -0.345331 -1.930758 4.221375 2.303965 1.052976 13.984196 -1.050967 -6.747500 -14.444753 nan nan nan -0.115759 6.224045 10.045605 1.639021 -2.862661 10.450829 0.101057 0.689700 -4.901716 1.651283 -1.132895 0.559081 0.854486 -2.548497 2.947327 -28.093506 -1.197454 1.213842 -48.540781 -0.547688 11.296170 5.393393 -38.752037 0.398845 -6.647727 -15.467199 -1.098435 25.954222 9.799527 2.253382 45.712206 3.797547 12.193739 -12.617056 38.025219 -6.856716 6.393745 16.079853 3.108686 
148.496887 -110.339333 91.750427 -128.698632 -1.964495 83.766633 0.551514 -2.974898 -10.533119 -4.500164 9.187738 36.994600 1.233153 14.547955 -18.060594 nan nan nan -0.433950 -1.915454 3.501897 2.357813 0.766359 13.719882 -1.218084 -6.692904 -13.808245 nan nan nan -0.264768 6.023313 9.832629 1.730713 -2.813062 10.270141 0.104271 0.546529 -4.937524 1.700917 -1.287661 0.720561 0.806838 -2.687675 3.002613 -28.003853 -1.067272 1.279098 -48.544056 -0.752509 11.377458 5.213176 -39.370573 0.184036 -5.957404 -15.557959 -1.546932 25.977296 9.353834 2.225097 45.787044 3.358803 12.287959 -12.127905 38.049786 -6.491472 6.209536 15.842801 2.904428 
